<svg xmlns="http://www.w3.org/2000/svg" xmlns:xlink="http://www.w3.org/1999/xlink" xmlns:lucid="lucid" width="947" height="786"><g transform="translate(-232 -236)" lucid:page-tab-id=".Q4MUjXso07N"><path d="M0 0h1360v1760H0z" fill="#fff"/><path d="M402.78 266a6 6 0 0 1 6-6h541.54a6 6 0 0 1 6 6v728a6 6 0 0 1-6 6H408.78a6 6 0 0 1-6-6z" stroke="#5e5e5e" stroke-width="3" fill="#fff"/><use xlink:href="#a" transform="matrix(1,0,0,1,410.7771404371331,268) translate(186.46913580246914 17.77777777777778)"/><use xlink:href="#b" transform="matrix(1,0,0,1,410.7771404371331,268) translate(261.65432098765433 17.77777777777778)"/><use xlink:href="#c" transform="matrix(1,0,0,1,410.7771404371331,268) translate(280.17283950617286 17.77777777777778)"/><path d="M306.22 489.75c0 10.9-8.84 19.75-19.75 19.75-10.9 0-19.75-8.84-19.75-19.75 0-10.9 8.84-19.75 19.75-19.75 10.9 0 19.75 8.84 19.75 19.75z" stroke="#5e5e5e" stroke-width="3" fill="#fff"/><path d="M286.47 509.5v49.3a20.7 20.7 0 0 0 3.2 11.07l36.8 58.13m-40-63.2l-40 63.2m0-98.75h80" stroke="#5e5e5e" stroke-width="3" fill="none"/><path d="M246.47 476a6 6 0 0 1 6-6h68a6 6 0 0 1 6 6v168a6 6 0 0 1-6 6h-68a6 6 0 0 1-6-6z" fill="none"/><use xlink:href="#d" transform="matrix(1,0,0,1,166.46954966781595,627.9989633254834) translate(99.28395061728395 14.555555555555555)"/><path d="M1137.9 467.12c0 10.9-8.83 19.75-19.74 19.75-10.9 0-19.75-8.85-19.75-19.75s8.85-19.75 19.76-19.75c10.9 0 19.75 8.84 19.75 19.75z" stroke="#5e5e5e" stroke-width="3" fill="#fff"/><path d="M1118.16 486.87v49.3a20.7 20.7 0 0 0 3.2 11.07l36.8 58.13m-40-63.2l-40 63.2m0-98.75h80" stroke="#5e5e5e" stroke-width="3" fill="none"/><path d="M1078.16 453.37a6 6 0 0 1 6-6h68a6 6 0 0 1 6 6v168a6 6 0 0 1-6 6h-68a6 6 0 0 1-6-6z" fill="none"/><use xlink:href="#e" transform="matrix(1,0,0,1,998.1594438443567,605.3661217828172) translate(68.19753086419752 14.555555555555555)"/><path d="M772 434.9c0 22.08-35.83 40-80 40-44.2 0-80-17.92-80-40 0-22.1 35.8-40 80-40 44.17 0 80 17.9 80 40z" stroke="#6f7681" stroke-width="3" fill="#fff"/><use xlink:href="#f" transform="matrix(1,0,0,1,635.9893486835786,410.8918221311086) translate(0.6249999999999929 27.6)"/><path d="M940 657.88c0 22.1-35.82 40-80 40s-80-17.9-80-40 35.82-40 80-40 80 17.9 80 40z" stroke="#5e5e5e" stroke-width="3" fill="#fff"/><use xlink:href="#g" transform="matrix(1,0,0,1,804,633.8781582060044) translate(7.574999999999996 27.6)"/><path d="M780 840c0 22.1-35.82 40-80 40s-80-17.9-80-40 35.82-40 80-40 80 17.9 80 40z" stroke="#5e5e5e" stroke-width="3" fill="#fff"/><use xlink:href="#h" transform="matrix(1,0,0,1,644,816) translate(-9.900000000000006 27.6)"/><path d="M609.5 435.9H455.3l-.83.06-.76.18-.72.3-.67.4-.58.52-.5.6-.42.66-.3.73-.2.76-.05.83v113.1l-.08 1.06-.26 1.06-.4 1.02-.58.94-.72.83-.83.7-.94.6-1.02.4-1.05.27-1.06.08H289v-2h154.2l.83-.07.76-.18.72-.3.67-.4.58-.52.5-.6.42-.66.3-.73.2-.76.05-.82v-113.1l.08-1.06.26-1.07.4-1.02.58-.92.72-.84.83-.7.94-.6 1.02-.4 1.05-.26 1.06-.1h154.3z" stroke="#5e5e5e" stroke-width=".05" fill="#5e5e5e"/><path d="M289.04 561H285v-2h4.04z" stroke="#5e5e5e" stroke-width=".05" fill="#5e5e5e"/><path d="M610.5 434.87v.22l.02.8h-1.06v-2h1.06z" fill="#5e5e5e"/><path d="M610.5 434.87v.22l.05.82h-1.1v-2.05h1.1zm-1-.95v1.95h1l-.03-.78v-.23l.02-.95zM940.2 433.98l1.05.25 1.02.42.94.58.84.7.72.85.57.93.42 1.03.26 1.07.1 1.05v90.48l.06.82.18.76.3.74.4.66.52.6.6.5.66.42.73.3.76.18.83.07h164.56v2H951.04l-1.05-.1-1.07-.24-1.02-.42-.92-.57-.84-.7-.72-.85-.57-.94-.42-1-.26-1.08-.08-1.06v-90.47l-.07-.82-.2-.75-.3-.73-.4-.67-.5-.6-.6-.5-.67-.4-.73-.3-.76-.2-.82-.06H774.5v-2h164.63z" stroke="#5e5e5e" stroke-width=".05" fill="#5e5e5e"/><path d="M1119.7 538.37h-4.03v-2h4.02z" stroke="#5e5e5e" stroke-width=".05" fill="#5e5e5e"/><path d="M774.5 435.9h-1.04l.03-1v-.2l-.04-.8h1.05z" fill="#5e5e5e"/><path d="M774.54 435.92h-1.1l.02-1v-.23l-.03-.83h1.1zm-1.06-2l.03.77v1.17h1v-1.95z" stroke="#5e5e5e" stroke-width=".05" fill="#5e5e5e"/><path d="M253.15 116.16a6 6 0 0 1 6-6h841.7a6 6 0 0 1 6 6V123a6 6 0 0 1-6 6h-841.7a6 6 0 0 1-6-6z" stroke="#000" stroke-opacity="0" stroke-width="2" fill="#fff" fill-opacity="0"/><use xlink:href="#i" transform="matrix(1,0,0,1,273.1465527853436,110.15522395684805) translate(337.41889917695477 14.917037037037037)"/><use xlink:href="#j" transform="matrix(1,0,0,1,273.1465527853436,110.15522395684805) translate(378.1665329218107 14.917037037037037)"/><use xlink:href="#k" transform="matrix(1,0,0,1,273.1465527853436,110.15522395684805) translate(390.61601851851856 14.917037037037037)"/><use xlink:href="#l" transform="matrix(1,0,0,1,273.1465527853436,110.15522395684805) translate(423.71550411522634 14.917037037037037)"/><use xlink:href="#m" transform="matrix(1,0,0,1,273.1465527853436,110.15522395684805) translate(449.20933127572016 14.917037037037037)"/><path d="M701 797.5h-2v-11.2h2zm13.57-38.62h-8.53l-.82.06-.76.2-.73.3-.67.4-.6.5-.5.6-.4.67-.3.73-.2.77-.06.82v11.17h-2v-11.26l.08-1.06.26-1.07.42-1 .57-.94.72-.83.83-.72.94-.56 1.02-.42 1.06-.26 1.06-.08h8.6zm25.72 0h-17.15v-2h17.14zm25.7 0h-17.13v-2H766zm37.3-10h-10.1l-.67.05-.6.15-.58.24-.54.32-.47.4-.4.5-.33.52-.24.58-.15.6-.04.72-.07.86-.23.9-.36.88-.48.8-.62.72-.7.62-.82.5-.87.35-.9.2-.9.08h-8.6v-2h8.52l.66-.05.62-.15.57-.24.54-.33.5-.4.4-.47.32-.54.24-.6.15-.6.06-.7.07-.86.22-.92.36-.87.5-.8.62-.72.7-.6.8-.5.88-.36.92-.22.9-.07h10.18zm30.42 0h-20.28v-2h20.28zm27.28-6.96l-.08 1.05-.26 1.07-.42 1.02-.57.93-.72.83-.83.7-.94.6-1.02.4-1.06.26-1.06.08h-10.18v-2h10.1l.82-.07.76-.17.73-.3.67-.4.6-.52.5-.58.4-.67.3-.73.2-.76.06-.82v-7.96h2zm0-16.04h-2v-8h2z" stroke="#5e5e5e" stroke-width=".05" fill="#5e5e5e"/><path d="M701 798.53l-.98-.03H699v-1.03h2z" fill="#5e5e5e"/><path d="M701.02 798.56l-1-.03h-1.04v-1.08H701zm-2-1.06v.98h1l.96.02v-1z" stroke="#5e5e5e" stroke-width=".05" fill="#5e5e5e"/><path d="M864.63 716.88h-9.26L860 702.6z" fill="#5e5e5e"/><path d="M866 717.88h-12l6-18.5zm-9.26-2h6.52L860 705.85z" stroke="#5e5e5e" stroke-width=".05" fill="#5e5e5e"/><use xlink:href="#n" transform="matrix(1,0,0,1,688.3355476848861,732.2781582060046) translate(0.005000000000002558 14.4)"/><path d="M612 765.05c0 19.33-35.83 35-80 35-44.2 0-80-15.67-80-35s35.8-35 80-35c44.17 0 80 15.67 80 35z" stroke="#5e5e5e" stroke-width="3" fill="#fff"/><use xlink:href="#o" transform="matrix(1,0,0,1,475.98934868357856,744.0523978690917) translate(17.574999999999996 25.1)"/><path d="M287.47 567.6h75a6 6 0 0 1 6 6v185.45a6 6 0 0 0 6 6h75.02M287.5 567.6h-4.03" stroke="#5e5e5e" stroke-width="2" fill="none"/><path d="M450.5 765.03v.2l.02.82h-1.06v-2h1.06z" stroke="#5e5e5e" stroke-width=".05" fill="#5e5e5e"/><path d="M956.32 887.48c0 27.6-35.82 50-80 50s-80-22.4-80-50c0-27.62 35.82-50 80-50s80 22.38 80 50z" stroke="#5e5e5e" stroke-width="3" fill="#fff"/><use xlink:href="#p" transform="matrix(1,0,0,1,820.3188876887132,857.4781582060044) translate(34.025 14.4)"/><use xlink:href="#q" transform="matrix(1,0,0,1,820.3188876887132,857.4781582060044) translate(21.074999999999996 36)"/><use xlink:href="#r" transform="matrix(1,0,0,1,820.3188876887132,857.4781582060044) translate(8.099999999999994 57.6)"/><use xlink:href="#s" transform="matrix(1,0,0,1,820.3188876887132,857.4781582060044) translate(56.99999999999999 57.6)"/><path d="M877.32 834.98h-2v-9.84h2zm0-19.67h-2v-19.65h2zm0-43.43h-2v-5.72h2zm0-15.56h-2v-19.65h2zm0-29.5h-2V717h2z" stroke="#5e5e5e" stroke-width=".05" fill="#5e5e5e"/><path d="M877.32 836l-.98-.02h-1.02v-1.03h2z" fill="#5e5e5e"/><path d="M877.34 836.03l-1-.03h-1.05v-1.07h2.04zm-2-1.05v.98h1l.95.02v-1z" stroke="#5e5e5e" stroke-width=".05" fill="#5e5e5e"/><path d="M880.95 715.98h-9.27l4.64-14.26z" fill="#5e5e5e"/><path d="M882.33 716.98H870.3l6.02-18.5zm-9.27-2h6.52l-3.26-10.03z" stroke="#5e5e5e" stroke-width=".05" fill="#5e5e5e"/><use xlink:href="#t" transform="matrix(1,0,0,1,828.3188876887132,771.8686394100546) translate(0 14.4)"/><path d="M600 937.1c0 19.33-35.82 35-80 35s-80-15.67-80-35 35.82-35 80-35 80 15.67 80 35z" stroke="#5e5e5e" stroke-width="3" fill="#fff"/><use xlink:href="#u" transform="matrix(1,0,0,1,464,916.1035517287884) translate(2.0999999999999943 25.1)"/><use xlink:href="#v" transform="matrix(1,0,0,1,464,916.1035517287884) translate(65.94999999999999 25.1)"/><path d="M521 899.6h-2v-14.17h2zm0-28.35h-2v-8.4h2zm12-30h-2v-4.5h2zm0-12.85h-2v-8.35h2z" stroke="#5e5e5e" stroke-width=".05" fill="#5e5e5e"/><path d="M521 900.63l-.98-.03H519v-1.02h2z" fill="#5e5e5e"/><path d="M521.02 900.66l-1-.03h-1.04v-1.08H521zm-2-1.06v.98h1l.96.03v-1z" stroke="#5e5e5e" stroke-width=".05" fill="#5e5e5e"/><path d="M536.63 819.05h-9.28L532 804.8z" fill="#5e5e5e"/><path d="M538 820.05h-12.02l6-18.5zm-9.27-2h6.52L532 808.03z" stroke="#5e5e5e" stroke-width=".05" fill="#5e5e5e"/><use xlink:href="#w" transform="matrix(1,0,0,1,472,841.2572105140031) translate(0 14.4)"/><path d="M580 355c0 19.33-35.82 35-80 35s-80-15.67-80-35 35.82-35 80-35 80 15.67 80 35z" stroke="#5e5e5e" stroke-width="3" fill="#fff"/><use xlink:href="#x" transform="matrix(1,0,0,1,444,334.00020733490334) translate(8.574999999999996 14.4)"/><use xlink:href="#y" transform="matrix(1,0,0,1,444,334.00020733490334) translate(57.525 14.4)"/><use xlink:href="#z" transform="matrix(1,0,0,1,444,334.00020733490334) translate(0.6249999999999929 36)"/><use xlink:href="#A" transform="matrix(1,0,0,1,444,334.00020733490334) translate(75.475 36)"/><path d="M861 615.38h-2v-11.64h2zm0-23.27h-2v-23.26h2zm-5.9-53.44l1.06.26 1.02.42.94.57.83.72.72.84.57.94.42 1 .26 1.08.08 1.06v11.67h-2v-11.58l-.07-.83-.18-.77-.3-.72-.4-.66-.52-.6-.6-.5-.66-.42-.73-.3-.76-.18-.82-.06H843.4v-2h10.64zm-101.6-9.88h-2v-3.92h2zm0-12.64h-2V498.7h2zm0-26.15h-2v-8.72h2z" stroke="#5e5e5e" stroke-width=".05" fill="#5e5e5e"/><path d="M861 616.4l-.98-.02H859v-1.03h2z" fill="#5e5e5e"/><path d="M861.02 616.43l-1-.03h-1.04v-1.07H861zm-2-1.05v.98h1l.96.02v-1z" stroke="#5e5e5e" stroke-width=".05" fill="#5e5e5e"/><path d="M757.14 480.28h-9.27L752.5 466z" fill="#5e5e5e"/><path d="M758.5 481.28h-12l6-18.5zm-9.26-2h6.52l-3.26-10.03z" stroke="#5e5e5e" stroke-width=".05" fill="#5e5e5e"/><use xlink:href="#n" transform="matrix(1,0,0,1,739.1717566994904,528.7762472631713) translate(0 14.4)"/><path d="M693 374.9h-2v-9.1h2zM594 356h-11.5v-2H594zm13.94 0h-2.44v-2h2.44z" stroke="#5e5e5e" stroke-width=".05" fill="#5e5e5e"/><path d="M582.53 356h-1.06l.03-.98v-.18l-.03-.84h1.06z" fill="#5e5e5e"/><path d="M582.55 356.03h-1.1l.02-1v-.2l-.03-.85h1.1zm-1.06-2l.02.8v.2l-.02.95h1v-1.95z" stroke="#5e5e5e" stroke-width=".05" fill="#5e5e5e"/><path d="M692 390.16l-4.65-14.27h9.27z" fill="#5e5e5e"/><path d="M692 393.4l-6.02-18.5H698zm-3.27-16.5L692 386.9l3.25-10.03z" stroke="#5e5e5e" stroke-width=".05" fill="#5e5e5e"/><use xlink:href="#w" transform="matrix(1,0,0,1,607.9403262764832,344.2005183372583) translate(0 14.4)"/><path d="M641.84 598c0 25.96-40.7 47-90.92 47-50.2 0-90.92-21.04-90.92-47s40.7-47 90.92-47c50.2 0 90.92 21.04 90.92 47z" stroke="#5e5e5e" stroke-width="3" fill="#fff"/><use xlink:href="#B" transform="matrix(1,0,0,1,487.2760834233465,569.8005820372449) translate(29.549999999999997 14.4)"/><use xlink:href="#C" transform="matrix(1,0,0,1,487.2760834233465,569.8005820372449) translate(30.549999999999997 36)"/><use xlink:href="#D" transform="matrix(1,0,0,1,487.2760834233465,569.8005820372449) translate(33.025 57.6)"/><path d="M289 560h85a6 6 0 0 1 6 6v26a6 6 0 0 0 6 6h71.5M289.04 560H285" stroke="#5e5e5e" stroke-width="2" fill="none"/><path d="M458.5 598v.83l.02.17h-1.05v-2h1.06zM533 727.55h-2v-11.4h2zm0-22.8h-2v-6.6h2zm29.17-28.2h-2v-11.9h2z" stroke="#5e5e5e" stroke-width=".05" fill="#5e5e5e"/><path d="M533 728.58l-1-.03h-1v-1.02h2z" fill="#5e5e5e"/><path d="M533 728.6l-1-.02h-1.04v-1.08H533zm-2-1.05v.98h1l.96.03v-1z" stroke="#5e5e5e" stroke-width=".05" fill="#5e5e5e"/><path d="M565.8 663.64h-9.26l4.63-14.26z" fill="#5e5e5e"/><path d="M567.18 664.64h-12.02l6-18.5zm-9.27-2h6.53l-3.26-10.02z" stroke="#5e5e5e" stroke-width=".05" fill="#5e5e5e"/><g><use xlink:href="#w" transform="matrix(1,0,0,1,498.58111679857893,676.5477677224576) translate(0 14.4)"/></g><path d="M551.92 548.5h-2v-10.4h2zm0-20.8h-2v-5.6h2zm109.35-22.36l-.08 1.05-.27 1.06-.42 1.02-.56.94-.72.83-.83.7-.95.6-1.02.4-1.06.27-1.06.08h-9.15v-2h9.08l.82-.07.76-.18.74-.3.67-.4.6-.52.5-.6.42-.66.3-.73.2-.76.05-.82V491.6h2z" stroke="#5e5e5e" stroke-width=".05" fill="#5e5e5e"/><path d="M551.92 549.53l-1-.03h-1v-1.03h2z" fill="#5e5e5e"/><path d="M551.95 549.55l-1.02-.02h-1.03v-1.08h2.05zm-2-1.05v1l.98-.02.97.02v-1z" stroke="#5e5e5e" stroke-width=".05" fill="#5e5e5e"/><path d="M664.9 490.6h-9.26l4.63-14.27z" fill="#5e5e5e"/><path d="M666.28 491.6h-12.02l6-18.5zm-9.27-2h6.53l-3.26-10.03z" stroke="#5e5e5e" stroke-width=".05" fill="#5e5e5e"/><g><use xlink:href="#E" transform="matrix(1,0,0,1,546.2473801449509,500.4988230463997) translate(0 14.4)"/></g><defs><path fill="#333" d="M161-211c-63 0-91 46-91 110 0 39 17 65 58 64 38-1 60-20 74-45l40 20C220-23 184 0 125 4 9 13-10-144 57-208c33-50 166-62 196-1 4 8 9 18 11 27l-48 12c-6-24-25-41-55-41" id="F"/><path fill="#333" d="M84-151c13-25 34-51 72-40l-8 41C67-170 71-64 56 0H6l36-190h47" id="G"/><path fill="#333" d="M114-194c63-2 87 48 72 110H63c-3 28 1 55 31 54 21-1 32-13 37-29l44 13C160-14 137 4 91 4 41 4 11-22 11-73c0-71 33-119 103-121zm30 77c14-47-50-61-67-22-3 6-6 13-8 22h75" id="H"/><path fill="#333" d="M166-52c-4 17 5 29 24 23l-3 27c-30 11-74 1-67-34C105-15 91 4 56 4 23 4 3-15 2-49c0-64 63-67 128-67 10-22 3-53-29-45-13 3-22 10-25 24l-46-5c5-64 156-77 153 0-1 33-11 60-17 90zM97-88c-44-9-64 57-19 57 31 0 42-28 47-57H97" id="I"/><path fill="#333" d="M72-63c-8 23 5 39 32 30L98-1C54 14 12-6 23-64l18-93H15l7-33h28l24-45h31l-8 45h35l-6 33H90" id="J"/><g id="a"><use transform="matrix(0.06172839506172839,0,0,0.06172839506172839,0,0)" xlink:href="#F"/><use transform="matrix(0.06172839506172839,0,0,0.06172839506172839,15.987654320987653,0)" xlink:href="#G"/><use transform="matrix(0.06172839506172839,0,0,0.06172839506172839,24.629629629629626,0)" xlink:href="#H"/><use transform="matrix(0.06172839506172839,0,0,0.06172839506172839,36.9753086419753,0)" xlink:href="#I"/><use transform="matrix(0.06172839506172839,0,0,0.06172839506172839,49.32098765432098,0)" xlink:href="#J"/><use transform="matrix(0.06172839506172839,0,0,0.06172839506172839,56.66666666666666,0)" xlink:href="#H"/></g><use transform="matrix(0.06172839506172839,0,0,0.06172839506172839,0,0)" xlink:href="#I" id="b"/><path fill="#333" d="M258-177c0 46-32 67-71 75L235 0h-57l-41-94H76L58 0H6l48-248c89 2 204-19 204 71zm-53 3c0-46-63-30-107-33l-14 73c51-2 120 13 121-40" id="K"/><path fill="#333" d="M156-122c2-23-7-37-28-37-47 0-58 44-58 89 0 24 12 40 36 40 43 0 47-49 50-92zM-8 75l50-265h48c0 10-3 24-3 30 22-50 127-45 121 29-6 73-21 135-92 135-29 0-46-14-55-35L41 75H-8" id="L"/><path fill="#333" d="M124-194c51 0 84 22 84 74C207-44 167 4 94 4 43 4 11-23 11-74c0-74 41-120 113-120zM99-30c46 0 58-42 58-86 0-27-11-44-37-44-44 0-55 40-57 84-1 27 10 45 36 46" id="M"/><g id="c"><use transform="matrix(0.06172839506172839,0,0,0.06172839506172839,0,0)" xlink:href="#K"/><use transform="matrix(0.06172839506172839,0,0,0.06172839506172839,15.987654320987653,0)" xlink:href="#H"/><use transform="matrix(0.06172839506172839,0,0,0.06172839506172839,28.333333333333332,0)" xlink:href="#L"/><use transform="matrix(0.06172839506172839,0,0,0.06172839506172839,41.85185185185185,0)" xlink:href="#M"/><use transform="matrix(0.06172839506172839,0,0,0.06172839506172839,55.37037037037037,0)" xlink:href="#G"/><use transform="matrix(0.06172839506172839,0,0,0.06172839506172839,64.01234567901234,0)" xlink:href="#J"/></g><path fill="#333" d="M187 0l-14-72H61L19 0h-37l149-248h38L221 0h-34zm-19-99l-22-123L76-99h92" id="N"/><path fill="#333" d="M44-68c0 29 11 47 38 47 30 0 42-19 51-41l28 9C148-21 126 4 82 4 31 4 10-29 12-85c3-77 74-140 146-93 12 8 15 23 18 40l-31 5c-1-22-13-36-36-36-52 0-65 49-65 101" id="O"/><path fill="#333" d="M51-54c-9 22 5 41 31 30L79-1C43 14 10-4 19-52l22-115H19l5-23h22l19-43h21l-9 43h35l-4 23H73" id="P"/><path fill="#333" d="M30-147c31-64 166-65 159 27C183-49 158 1 86 4 9 8 1-88 30-147zM88-20c53 0 68-48 68-100 0-31-11-51-44-50-52 1-68 46-68 97 0 32 13 53 44 53" id="Q"/><path fill="#333" d="M66-151c12-25 30-51 66-40l-6 26C45-176 58-65 38 0H6l36-190h30" id="R"/><g id="d"><use transform="matrix(0.04938271604938272,0,0,0.04938271604938272,0,0)" xlink:href="#N"/><use transform="matrix(0.04938271604938272,0,0,0.04938271604938272,11.851851851851853,0)" xlink:href="#O"/><use transform="matrix(0.04938271604938272,0,0,0.04938271604938272,20.74074074074074,0)" xlink:href="#P"/><use transform="matrix(0.04938271604938272,0,0,0.04938271604938272,25.679012345679016,0)" xlink:href="#Q"/><use transform="matrix(0.04938271604938272,0,0,0.04938271604938272,35.55555555555556,0)" xlink:href="#R"/></g><path fill="#333" d="M194-120c59 52 2 134-86 124-53-6-90-18-98-63l31-7c8 30 29 43 70 43 46 0 84-17 71-62-32-43-135-20-137-98-3-89 178-90 191-16l-30 9c-8-48-127-53-127 5 0 53 81 35 115 65" id="S"/><path fill="#333" d="M165-48c-4 18 1 34 23 27l-3 20c-29 8-62 0-52-35h-2C116-14 99 4 63 4 30 4 8-16 8-49c0-68 71-67 138-67 10-26 0-56-31-54-26 1-42 9-47 31l-32-5c8-67 160-71 144 15-5 28-9 54-15 81zM42-50c3 52 80 24 89-6 7-12 7-24 11-38-47 1-103-4-100 44" id="T"/><path fill="#333" d="M127 0L80-88 50-66 37 0H6l51-261h31L57-100l99-90h39l-93 82L161 0h-34" id="U"/><path fill="#333" d="M111-194c62-3 86 47 72 106H45c-7 38 6 69 45 68 27-1 43-14 53-32l24 11C152-15 129 4 87 4 38 3 12-23 12-71c0-70 32-119 99-123zm44 81c14-66-71-72-95-28-4 8-8 17-11 28h106" id="V"/><path fill="#333" d="M67-158c15-20 31-36 64-36 94 0 33 127 27 194h-32l25-140c3-38-53-32-70-12C52-117 51-51 37 0H6l51-261h31" id="W"/><path fill="#333" d="M6 0l50-261h32L37 0H6" id="X"/><path fill="#333" d="M133-28C103 26-5 8 13-77c13-62 24-115 90-117 29-1 46 15 56 35l19-102h32L160 0h-30zM45-64c-2 27 10 43 35 43 54-1 69-50 69-103 0-29-15-46-42-46-53-1-58 58-62 106" id="Y"/><path fill="#333" d="M55-144c13 50 104 24 104 88C159 21 15 23 1-39l26-10c6 40 102 42 102-4-13-50-104-23-104-87 0-71 143-71 148-8l-29 4c-5-35-85-37-89 0" id="Z"/><g id="e"><use transform="matrix(0.04938271604938272,0,0,0.04938271604938272,0,0)" xlink:href="#S"/><use transform="matrix(0.04938271604938272,0,0,0.04938271604938272,11.851851851851853,0)" xlink:href="#P"/><use transform="matrix(0.04938271604938272,0,0,0.04938271604938272,16.790123456790127,0)" xlink:href="#T"/><use transform="matrix(0.04938271604938272,0,0,0.04938271604938272,26.666666666666668,0)" xlink:href="#U"/><use transform="matrix(0.04938271604938272,0,0,0.04938271604938272,35.55555555555556,0)" xlink:href="#V"/><use transform="matrix(0.04938271604938272,0,0,0.04938271604938272,45.4320987654321,0)" xlink:href="#W"/><use transform="matrix(0.04938271604938272,0,0,0.04938271604938272,55.308641975308646,0)" xlink:href="#Q"/><use transform="matrix(0.04938271604938272,0,0,0.04938271604938272,65.18518518518519,0)" xlink:href="#X"/><use transform="matrix(0.04938271604938272,0,0,0.04938271604938272,69.08641975308643,0)" xlink:href="#Y"/><use transform="matrix(0.04938271604938272,0,0,0.04938271604938272,78.96296296296298,0)" xlink:href="#V"/><use transform="matrix(0.04938271604938272,0,0,0.04938271604938272,88.83950617283952,0)" xlink:href="#R"/><use transform="matrix(0.04938271604938272,0,0,0.04938271604938272,94.71604938271606,0)" xlink:href="#Z"/></g><path fill="#333" d="M190-63c-7 42-38 67-86 67-59 0-84-38-90-98-12-110 154-137 174-36l-49 2c-2-19-15-32-35-32-30 0-35 28-38 64-6 74 65 87 74 30" id="aa"/><path fill="#333" d="M135-150c-39-12-60 13-60 57V0H25l-1-190h47c2 13-1 29 3 40 6-28 27-53 61-41v41" id="ab"/><path fill="#333" d="M185-48c-13 30-37 53-82 52C43 2 14-33 14-96s30-98 90-98c62 0 83 45 84 108H66c0 31 8 55 39 56 18 0 30-7 34-22zm-45-69c5-46-57-63-70-21-2 6-4 13-4 21h74" id="ac"/><path fill="#333" d="M133-34C117-15 103 5 69 4 32 3 11-16 11-54c-1-60 55-63 116-61 1-26-3-47-28-47-18 1-26 9-28 27l-52-2c7-38 36-58 82-57s74 22 75 68l1 82c-1 14 12 18 25 15v27c-30 8-71 5-69-32zm-48 3c29 0 43-24 42-57-32 0-66-3-65 30 0 17 8 27 23 27" id="ad"/><path fill="#333" d="M115-3C79 11 28 4 28-45v-112H4v-33h27l15-45h31v45h36v33H77v99c-1 23 16 31 38 25v30" id="ae"/><path fill="#333" d="M240-174c0 40-23 61-54 70L253 0h-59l-57-94H76V0H24v-248c93 4 217-23 216 74zM76-134c48-2 112 12 112-38 0-48-66-32-112-35v73" id="af"/><path fill="#333" d="M135-194c53 0 70 44 70 98 0 56-19 98-73 100-31 1-45-17-59-34 3 33 2 69 2 105H25l-1-265h48c2 10 0 23 3 31 11-24 29-35 60-35zM114-30c33 0 39-31 40-66 0-38-9-64-40-64-56 0-55 130 0 130" id="ag"/><path fill="#333" d="M110-194c64 0 96 36 96 99 0 64-35 99-97 99-61 0-95-36-95-99 0-62 34-99 96-99zm-1 164c35 0 45-28 45-65 0-40-10-65-43-65-34 0-45 26-45 65 0 36 10 65 43 65" id="ah"/><g id="f"><use transform="matrix(0.05,0,0,0.05,0,0)" xlink:href="#aa"/><use transform="matrix(0.05,0,0,0.05,10,0)" xlink:href="#ab"/><use transform="matrix(0.05,0,0,0.05,17,0)" xlink:href="#ac"/><use transform="matrix(0.05,0,0,0.05,27,0)" xlink:href="#ad"/><use transform="matrix(0.05,0,0,0.05,37,0)" xlink:href="#ae"/><use transform="matrix(0.05,0,0,0.05,42.95,0)" xlink:href="#ac"/><use transform="matrix(0.05,0,0,0.05,52.95,0)" xlink:href="#af"/><use transform="matrix(0.05,0,0,0.05,65.9,0)" xlink:href="#ac"/><use transform="matrix(0.05,0,0,0.05,75.9,0)" xlink:href="#ag"/><use transform="matrix(0.05,0,0,0.05,86.85000000000001,0)" xlink:href="#ah"/><use transform="matrix(0.05,0,0,0.05,97.80000000000001,0)" xlink:href="#ab"/><use transform="matrix(0.05,0,0,0.05,104.80000000000001,0)" xlink:href="#ae"/></g><path fill="#333" d="M275 0h-61l-44-196L126 0H64L0-248h53L97-49l45-199h58l43 199 44-199h52" id="ai"/><path fill="#333" d="M230 0l2-204L168 0h-37L68-204 70 0H24v-248h70l56 185 57-185h69V0h-46" id="aj"/><path fill="#333" d="M169-182c-1-43-94-46-97-3 18 66 151 10 154 114 3 95-165 93-204 36-6-8-10-19-12-30l50-8c3 46 112 56 116 5-17-69-150-10-154-114-4-87 153-88 188-35 5 8 8 18 10 28" id="ak"/><g id="g"><use transform="matrix(0.05,0,0,0.05,0,0)" xlink:href="#aa"/><use transform="matrix(0.05,0,0,0.05,10,0)" xlink:href="#ab"/><use transform="matrix(0.05,0,0,0.05,17,0)" xlink:href="#ac"/><use transform="matrix(0.05,0,0,0.05,27,0)" xlink:href="#ad"/><use transform="matrix(0.05,0,0,0.05,37,0)" xlink:href="#ae"/><use transform="matrix(0.05,0,0,0.05,42.95,0)" xlink:href="#ac"/><use transform="matrix(0.05,0,0,0.05,52.95,0)" xlink:href="#ai"/><use transform="matrix(0.05,0,0,0.05,69.9,0)" xlink:href="#aj"/><use transform="matrix(0.05,0,0,0.05,84.85000000000001,0)" xlink:href="#ak"/></g><path fill="#333" d="M25 0v-261h50V0H25" id="al"/><path fill="#333" d="M135-194c52 0 70 43 70 98 0 56-19 99-73 100-30 1-46-15-58-35L72 0H24l1-261h50v104c11-23 29-37 60-37zM114-30c31 0 40-27 40-66 0-37-7-63-39-63s-41 28-41 65c0 36 8 64 40 64" id="am"/><path fill="#333" d="M24 0v-248h52V0H24" id="an"/><path fill="#333" d="M220-157c-53 9-28 100-34 157h-49v-107c1-27-5-49-29-50C55-147 81-57 75 0H25l-1-190h47c2 12-1 28 3 38 10-53 101-56 108 0 13-22 24-43 59-42 82 1 51 116 57 194h-49v-107c-1-25-5-48-29-50" id="ao"/><path fill="#333" d="M195-6C206 82 75 100 31 46c-4-6-6-13-8-21l49-6c3 16 16 24 34 25 40 0 42-37 40-79-11 22-30 35-61 35-53 0-70-43-70-97 0-56 18-96 73-97 30 0 46 14 59 34l2-30h47zm-90-29c32 0 41-27 41-63 0-35-9-62-40-62-32 0-39 29-40 63 0 36 9 62 39 62" id="ap"/><g id="h"><use transform="matrix(0.05,0,0,0.05,0,0)" xlink:href="#ac"/><use transform="matrix(0.05,0,0,0.05,10,0)" xlink:href="#al"/><use transform="matrix(0.05,0,0,0.05,15,0)" xlink:href="#ad"/><use transform="matrix(0.05,0,0,0.05,25,0)" xlink:href="#am"/><use transform="matrix(0.05,0,0,0.05,35.95,0)" xlink:href="#ah"/><use transform="matrix(0.05,0,0,0.05,46.900000000000006,0)" xlink:href="#ab"/><use transform="matrix(0.05,0,0,0.05,53.900000000000006,0)" xlink:href="#ad"/><use transform="matrix(0.05,0,0,0.05,63.900000000000006,0)" xlink:href="#ae"/><use transform="matrix(0.05,0,0,0.05,69.85000000000001,0)" xlink:href="#ac"/><use transform="matrix(0.05,0,0,0.05,79.85000000000001,0)" xlink:href="#an"/><use transform="matrix(0.05,0,0,0.05,84.85000000000001,0)" xlink:href="#ao"/><use transform="matrix(0.05,0,0,0.05,100.85000000000001,0)" xlink:href="#ad"/><use transform="matrix(0.05,0,0,0.05,110.85000000000001,0)" xlink:href="#ap"/><use transform="matrix(0.05,0,0,0.05,121.80000000000001,0)" xlink:href="#ac"/></g><path fill="#333" d="M233-177c-1 41-23 64-60 70L243 0h-38l-65-103H63V0H30v-248c88 3 205-21 203 71zM63-129c60-2 137 13 137-47 0-61-80-42-137-45v92" id="aq"/><path fill="#333" d="M100-194c62-1 85 37 85 99 1 63-27 99-86 99S16-35 15-95c0-66 28-99 85-99zM99-20c44 1 53-31 53-75 0-43-8-75-51-75s-53 32-53 75 10 74 51 75" id="ar"/><path fill="#333" d="M117-194c89-4 53 116 60 194h-32v-121c0-31-8-49-39-48C34-167 62-67 57 0H25l-1-190h30c1 10-1 24 2 32 11-22 29-35 61-36" id="as"/><g id="i"><use transform="matrix(0.04248971193415638,0,0,0.04248971193415638,0,0)" xlink:href="#aq"/><use transform="matrix(0.04248971193415638,0,0,0.04248971193415638,11.004835390946502,0)" xlink:href="#ar"/><use transform="matrix(0.04248971193415638,0,0,0.04248971193415638,19.502777777777776,0)" xlink:href="#as"/></g><path fill="#333" d="M32 76v-337h29V76H32" id="at"/><use transform="matrix(0.04248971193415638,0,0,0.04248971193415638,0,0)" xlink:href="#at" id="j"/><path fill="#333" d="M240 0l2-218c-23 76-54 145-80 218h-23L58-218 59 0H30v-248h44l77 211c21-75 51-140 76-211h43V0h-30" id="au"/><path fill="#333" d="M141-36C126-15 110 5 73 4 37 3 15-17 15-53c-1-64 63-63 125-63 3-35-9-54-41-54-24 1-41 7-42 31l-33-3c5-37 33-52 76-52 45 0 72 20 72 64v82c-1 20 7 32 28 27v20c-31 9-61-2-59-35zM48-53c0 20 12 33 32 33 41-3 63-29 60-74-43 2-92-5-92 41" id="av"/><path fill="#333" d="M179-190L93 31C79 59 56 82 12 73V49c39 6 53-20 64-50L1-190h34L92-34l54-156h33" id="aw"/><g id="k"><use transform="matrix(0.04248971193415638,0,0,0.04248971193415638,0,0)" xlink:href="#au"/><use transform="matrix(0.04248971193415638,0,0,0.04248971193415638,12.704423868312757,0)" xlink:href="#av"/><use transform="matrix(0.04248971193415638,0,0,0.04248971193415638,21.20236625514403,0)" xlink:href="#aw"/></g><path fill="#333" d="M101-251c82-7 93 87 43 132L82-64C71-53 59-42 53-27h129V0H18c2-99 128-94 128-182 0-28-16-43-45-43s-46 15-49 41l-32-3c6-41 34-60 81-64" id="ax"/><path fill="#333" d="M27 0v-27h64v-190l-56 39v-29l58-41h29v221h61V0H27" id="ay"/><path fill="#333" d="M68-38c1 34 0 65-14 84H32c9-13 17-26 17-46H33v-38h35" id="az"/><g id="l"><use transform="matrix(0.04248971193415638,0,0,0.04248971193415638,0,0)" xlink:href="#ax"/><use transform="matrix(0.04248971193415638,0,0,0.04248971193415638,8.497942386831275,0)" xlink:href="#ay"/><use transform="matrix(0.04248971193415638,0,0,0.04248971193415638,16.99588477366255,0)" xlink:href="#az"/></g><path fill="#333" d="M101-251c68 0 85 55 85 127S166 4 100 4C33 4 14-52 14-124c0-73 17-127 87-127zm-1 229c47 0 54-49 54-102s-4-102-53-102c-51 0-55 48-55 102 0 53 5 102 54 102" id="aA"/><path fill="#333" d="M126-127c33 6 58 20 58 59 0 88-139 92-164 29-3-8-5-16-6-25l32-3c6 27 21 44 54 44 32 0 52-15 52-46 0-38-36-46-79-43v-28c39 1 72-4 72-42 0-27-17-43-46-43-28 0-47 15-49 41l-32-3c6-42 35-63 81-64 48-1 79 21 79 65 0 36-21 52-52 59" id="aB"/><g id="m"><use transform="matrix(0.04248971193415638,0,0,0.04248971193415638,0,0)" xlink:href="#ax"/><use transform="matrix(0.04248971193415638,0,0,0.04248971193415638,8.497942386831275,0)" xlink:href="#aA"/><use transform="matrix(0.04248971193415638,0,0,0.04248971193415638,16.99588477366255,0)" xlink:href="#ax"/><use transform="matrix(0.04248971193415638,0,0,0.04248971193415638,25.493827160493822,0)" xlink:href="#aB"/></g><path fill="#333" d="M18-100v-36l175-74v27L42-118l151 64v27" id="aC"/><path fill="#333" d="M24-231v-30h32v30H24zM24 0v-190h32V0H24" id="aD"/><path fill="#333" d="M96-169c-40 0-48 33-48 73s9 75 48 75c24 0 41-14 43-38l32 2c-6 37-31 61-74 61-59 0-76-41-82-99-10-93 101-131 147-64 4 7 5 14 7 22l-32 3c-4-21-16-35-41-35" id="aE"/><path fill="#333" d="M24 0v-261h32V0H24" id="aF"/><path fill="#333" d="M84 4C-5 8 30-112 23-190h32v120c0 31 7 50 39 49 72-2 45-101 50-169h31l1 190h-30c-1-10 1-25-2-33-11 22-28 36-60 37" id="aG"/><path fill="#333" d="M85-194c31 0 48 13 60 33l-1-100h32l1 261h-30c-2-10 0-23-3-31C134-8 116 4 85 4 32 4 16-35 15-94c0-66 23-100 70-100zm9 24c-40 0-46 34-46 75 0 40 6 74 45 74 42 0 51-32 51-76 0-42-9-74-50-73" id="aH"/><path fill="#333" d="M100-194c63 0 86 42 84 106H49c0 40 14 67 53 68 26 1 43-12 49-29l28 8c-11 28-37 45-77 45C44 4 14-33 15-96c1-61 26-98 85-98zm52 81c6-60-76-77-97-28-3 7-6 17-6 28h103" id="aI"/><path fill="#333" d="M18-27v-27l151-64-151-65v-27l175 74v36" id="aJ"/><g id="n"><use transform="matrix(0.05,0,0,0.05,0,0)" xlink:href="#aC"/><use transform="matrix(0.05,0,0,0.05,10.5,0)" xlink:href="#aC"/><use transform="matrix(0.05,0,0,0.05,21,0)" xlink:href="#aD"/><use transform="matrix(0.05,0,0,0.05,24.95,0)" xlink:href="#as"/><use transform="matrix(0.05,0,0,0.05,34.95,0)" xlink:href="#aE"/><use transform="matrix(0.05,0,0,0.05,43.95,0)" xlink:href="#aF"/><use transform="matrix(0.05,0,0,0.05,47.900000000000006,0)" xlink:href="#aG"/><use transform="matrix(0.05,0,0,0.05,57.900000000000006,0)" xlink:href="#aH"/><use transform="matrix(0.05,0,0,0.05,67.9,0)" xlink:href="#aI"/><use transform="matrix(0.05,0,0,0.05,77.9,0)" xlink:href="#aJ"/><use transform="matrix(0.05,0,0,0.05,88.4,0)" xlink:href="#aJ"/></g><path fill="#333" d="M231 0h-52l-39-155L100 0H48L-1-190h46L77-45c9-52 24-97 36-145h53l37 145 32-145h46" id="aK"/><path fill="#333" d="M137-138c1-29-70-34-71-4 15 46 118 7 119 86 1 83-164 76-172 9l43-7c4 19 20 25 44 25 33 8 57-30 24-41C81-84 22-81 20-136c-2-80 154-74 161-7" id="aL"/><path fill="#333" d="M88-194c31-1 46 15 58 34l-1-101h50l1 261h-48c-2-10 0-23-3-31C134-8 116 4 84 4 32 4 16-41 15-95c0-56 19-97 73-99zm17 164c33 0 40-30 41-66 1-37-9-64-41-64s-38 30-39 65c0 43 13 65 39 65" id="aM"/><path fill="#333" d="M25-224v-37h50v37H25zM25 0v-190h50V0H25" id="aN"/><path fill="#333" d="M135-194c87-1 58 113 63 194h-50c-7-57 23-157-34-157-59 0-34 97-39 157H25l-1-190h47c2 12-1 28 3 38 12-26 28-41 61-42" id="aO"/><g id="o"><use transform="matrix(0.05,0,0,0.05,0,0)" xlink:href="#aK"/><use transform="matrix(0.05,0,0,0.05,14,0)" xlink:href="#ad"/><use transform="matrix(0.05,0,0,0.05,24,0)" xlink:href="#aL"/><use transform="matrix(0.05,0,0,0.05,34,0)" xlink:href="#aM"/><use transform="matrix(0.05,0,0,0.05,44.95,0)" xlink:href="#aN"/><use transform="matrix(0.05,0,0,0.05,49.95,0)" xlink:href="#an"/><use transform="matrix(0.05,0,0,0.05,54.95,0)" xlink:href="#aO"/><use transform="matrix(0.05,0,0,0.05,65.9,0)" xlink:href="#aN"/><use transform="matrix(0.05,0,0,0.05,70.9,0)" xlink:href="#ae"/></g><path fill="#333" d="M24 0v-248h195v40H76v63h132v40H76v65h150V0H24" id="aP"/><g id="p"><use transform="matrix(0.05,0,0,0.05,0,0)" xlink:href="#aP"/><use transform="matrix(0.05,0,0,0.05,12,0)" xlink:href="#ab"/><use transform="matrix(0.05,0,0,0.05,19,0)" xlink:href="#ab"/><use transform="matrix(0.05,0,0,0.05,26,0)" xlink:href="#ah"/><use transform="matrix(0.05,0,0,0.05,36.95,0)" xlink:href="#ab"/></g><g id="q"><use transform="matrix(0.05,0,0,0.05,0,0)" xlink:href="#aa"/><use transform="matrix(0.05,0,0,0.05,10,0)" xlink:href="#ab"/><use transform="matrix(0.05,0,0,0.05,17,0)" xlink:href="#ac"/><use transform="matrix(0.05,0,0,0.05,27,0)" xlink:href="#ad"/><use transform="matrix(0.05,0,0,0.05,37,0)" xlink:href="#ae"/><use transform="matrix(0.05,0,0,0.05,42.95,0)" xlink:href="#aN"/><use transform="matrix(0.05,0,0,0.05,47.95,0)" xlink:href="#aO"/><use transform="matrix(0.05,0,0,0.05,58.900000000000006,0)" xlink:href="#ap"/></g><g id="r"><use transform="matrix(0.05,0,0,0.05,0,0)" xlink:href="#ai"/><use transform="matrix(0.05,0,0,0.05,16.95,0)" xlink:href="#aj"/><use transform="matrix(0.05,0,0,0.05,31.899999999999995,0)" xlink:href="#ak"/></g><g id="s"><use transform="matrix(0.05,0,0,0.05,0,0)" xlink:href="#aa"/><use transform="matrix(0.05,0,0,0.05,10,0)" xlink:href="#al"/><use transform="matrix(0.05,0,0,0.05,15,0)" xlink:href="#aN"/><use transform="matrix(0.05,0,0,0.05,20,0)" xlink:href="#ac"/><use transform="matrix(0.05,0,0,0.05,30,0)" xlink:href="#aO"/><use transform="matrix(0.05,0,0,0.05,40.95,0)" xlink:href="#ae"/></g><path fill="#333" d="M141 0L90-78 38 0H4l68-98-65-92h35l48 74 47-74h35l-64 92 68 98h-35" id="aQ"/><path fill="#333" d="M59-47c-2 24 18 29 38 22v24C64 9 27 4 27-40v-127H5v-23h24l9-43h21v43h35v23H59v120" id="aR"/><g id="t"><use transform="matrix(0.05,0,0,0.05,0,0)" xlink:href="#aC"/><use transform="matrix(0.05,0,0,0.05,10.5,0)" xlink:href="#aC"/><use transform="matrix(0.05,0,0,0.05,21,0)" xlink:href="#aI"/><use transform="matrix(0.05,0,0,0.05,31,0)" xlink:href="#aQ"/><use transform="matrix(0.05,0,0,0.05,40,0)" xlink:href="#aR"/><use transform="matrix(0.05,0,0,0.05,45,0)" xlink:href="#aI"/><use transform="matrix(0.05,0,0,0.05,55,0)" xlink:href="#as"/><use transform="matrix(0.05,0,0,0.05,65,0)" xlink:href="#aH"/><use transform="matrix(0.05,0,0,0.05,75,0)" xlink:href="#aJ"/><use transform="matrix(0.05,0,0,0.05,85.5,0)" xlink:href="#aJ"/></g><path fill="#333" d="M199 0l-22-63H83L61 0H9l90-248h61L250 0h-51zm-33-102l-36-108c-10 38-24 72-36 108h72" id="aS"/><path fill="#333" d="M24-248c120-7 223 5 221 122C244-46 201 0 124 0H24v-248zM76-40c74 7 117-18 117-86 0-67-45-88-117-82v168" id="aT"/><g id="u"><use transform="matrix(0.05,0,0,0.05,0,0)" xlink:href="#ai"/><use transform="matrix(0.05,0,0,0.05,15.949999999999998,0)" xlink:href="#aS"/><use transform="matrix(0.05,0,0,0.05,28.899999999999995,0)" xlink:href="#ak"/><use transform="matrix(0.05,0,0,0.05,40.9,0)" xlink:href="#aT"/><use transform="matrix(0.05,0,0,0.05,53.85,0)" xlink:href="#an"/></g><g id="v"><use transform="matrix(0.05,0,0,0.05,0,0)" xlink:href="#aP"/><use transform="matrix(0.05,0,0,0.05,12,0)" xlink:href="#ab"/><use transform="matrix(0.05,0,0,0.05,19,0)" xlink:href="#ab"/><use transform="matrix(0.05,0,0,0.05,26,0)" xlink:href="#ah"/><use transform="matrix(0.05,0,0,0.05,36.95,0)" xlink:href="#ab"/></g><g id="w"><use transform="matrix(0.05,0,0,0.05,0,0)" xlink:href="#aC"/><use transform="matrix(0.05,0,0,0.05,10.5,0)" xlink:href="#aC"/><use transform="matrix(0.05,0,0,0.05,21,0)" xlink:href="#aI"/><use transform="matrix(0.05,0,0,0.05,31,0)" xlink:href="#aQ"/><use transform="matrix(0.05,0,0,0.05,40,0)" xlink:href="#aR"/><use transform="matrix(0.05,0,0,0.05,45,0)" xlink:href="#aI"/><use transform="matrix(0.05,0,0,0.05,55,0)" xlink:href="#as"/><use transform="matrix(0.05,0,0,0.05,65,0)" xlink:href="#aH"/><use transform="matrix(0.05,0,0,0.05,75,0)" xlink:href="#aJ"/><use transform="matrix(0.05,0,0,0.05,85.5,0)" xlink:href="#aJ"/></g><g id="x"><use transform="matrix(0.05,0,0,0.05,0,0)" xlink:href="#aP"/><use transform="matrix(0.05,0,0,0.05,12,0)" xlink:href="#ab"/><use transform="matrix(0.05,0,0,0.05,19,0)" xlink:href="#ab"/><use transform="matrix(0.05,0,0,0.05,26,0)" xlink:href="#ah"/><use transform="matrix(0.05,0,0,0.05,36.95,0)" xlink:href="#ab"/></g><path fill="#333" d="M114-157C55-157 80-60 75 0H25v-261h50l-1 109c12-26 28-41 61-42 86-1 58 113 63 194h-50c-7-57 23-157-34-157" id="aU"/><g id="y"><use transform="matrix(0.05,0,0,0.05,0,0)" xlink:href="#aK"/><use transform="matrix(0.05,0,0,0.05,14,0)" xlink:href="#aU"/><use transform="matrix(0.05,0,0,0.05,24.950000000000003,0)" xlink:href="#ac"/><use transform="matrix(0.05,0,0,0.05,34.95,0)" xlink:href="#aO"/></g><g id="z"><use transform="matrix(0.05,0,0,0.05,0,0)" xlink:href="#aa"/><use transform="matrix(0.05,0,0,0.05,10,0)" xlink:href="#ab"/><use transform="matrix(0.05,0,0,0.05,17,0)" xlink:href="#ac"/><use transform="matrix(0.05,0,0,0.05,27,0)" xlink:href="#ad"/><use transform="matrix(0.05,0,0,0.05,37,0)" xlink:href="#ae"/><use transform="matrix(0.05,0,0,0.05,42.95,0)" xlink:href="#aN"/><use transform="matrix(0.05,0,0,0.05,47.95,0)" xlink:href="#aO"/><use transform="matrix(0.05,0,0,0.05,58.900000000000006,0)" xlink:href="#ap"/></g><path fill="#333" d="M24-248c93 1 206-16 204 79-1 75-69 88-152 82V0H24v-248zm52 121c47 0 100 7 100-41 0-47-54-39-100-39v80" id="aV"/><path fill="#333" d="M76-208v77h127v40H76V0H24v-248h183v40H76" id="aW"/><g id="A"><use transform="matrix(0.05,0,0,0.05,0,0)" xlink:href="#aV"/><use transform="matrix(0.05,0,0,0.05,12,0)" xlink:href="#aT"/><use transform="matrix(0.05,0,0,0.05,24.950000000000003,0)" xlink:href="#aW"/></g><g id="B"><use transform="matrix(0.05,0,0,0.05,0,0)" xlink:href="#ag"/><use transform="matrix(0.05,0,0,0.05,10.950000000000001,0)" xlink:href="#ab"/><use transform="matrix(0.05,0,0,0.05,17.950000000000003,0)" xlink:href="#ah"/><use transform="matrix(0.05,0,0,0.05,28.900000000000006,0)" xlink:href="#aa"/><use transform="matrix(0.05,0,0,0.05,38.900000000000006,0)" xlink:href="#ac"/><use transform="matrix(0.05,0,0,0.05,48.900000000000006,0)" xlink:href="#aL"/><use transform="matrix(0.05,0,0,0.05,58.900000000000006,0)" xlink:href="#aL"/></g><g id="C"><use transform="matrix(0.05,0,0,0.05,0,0)" xlink:href="#aL"/><use transform="matrix(0.05,0,0,0.05,10,0)" xlink:href="#ad"/><use transform="matrix(0.05,0,0,0.05,20,0)" xlink:href="#ae"/><use transform="matrix(0.05,0,0,0.05,25.950000000000003,0)" xlink:href="#ac"/><use transform="matrix(0.05,0,0,0.05,35.95,0)" xlink:href="#al"/><use transform="matrix(0.05,0,0,0.05,40.95,0)" xlink:href="#al"/><use transform="matrix(0.05,0,0,0.05,45.95,0)" xlink:href="#aN"/><use transform="matrix(0.05,0,0,0.05,50.95,0)" xlink:href="#ae"/><use transform="matrix(0.05,0,0,0.05,56.900000000000006,0)" xlink:href="#ac"/></g><g id="D"><use transform="matrix(0.05,0,0,0.05,0,0)" xlink:href="#aN"/><use transform="matrix(0.05,0,0,0.05,5,0)" xlink:href="#ao"/><use transform="matrix(0.05,0,0,0.05,21,0)" xlink:href="#ad"/><use transform="matrix(0.05,0,0,0.05,31,0)" xlink:href="#ap"/><use transform="matrix(0.05,0,0,0.05,41.95,0)" xlink:href="#ac"/><use transform="matrix(0.05,0,0,0.05,51.95,0)" xlink:href="#aL"/></g><g id="E"><use transform="matrix(0.05,0,0,0.05,0,0)" xlink:href="#aC"/><use transform="matrix(0.05,0,0,0.05,10.5,0)" xlink:href="#aC"/><use transform="matrix(0.05,0,0,0.05,21,0)" xlink:href="#aD"/><use transform="matrix(0.05,0,0,0.05,24.95,0)" xlink:href="#as"/><use transform="matrix(0.05,0,0,0.05,34.95,0)" xlink:href="#aE"/><use transform="matrix(0.05,0,0,0.05,43.95,0)" xlink:href="#aF"/><use transform="matrix(0.05,0,0,0.05,47.900000000000006,0)" xlink:href="#aG"/><use transform="matrix(0.05,0,0,0.05,57.900000000000006,0)" xlink:href="#aH"/><use transform="matrix(0.05,0,0,0.05,67.9,0)" xlink:href="#aI"/><use transform="matrix(0.05,0,0,0.05,77.9,0)" xlink:href="#aJ"/><use transform="matrix(0.05,0,0,0.05,88.4,0)" xlink:href="#aJ"/></g></defs></g></svg>